<?xml version="1.0" encoding="utf-8"?>
<!-- Generator: Adobe Illustrator 18.0.0, SVG Export Plug-In . SVG Version: 6.00 Build 0)  -->
<!DOCTYPE svg PUBLIC "-//W3C//DTD SVG 1.1//EN" "http://www.w3.org/Graphics/SVG/1.1/DTD/svg11.dtd">
<svg version="1.1" id="Layer_1" xmlns="http://www.w3.org/2000/svg" xmlns:xlink="http://www.w3.org/1999/xlink" x="0px" y="0px"
	 viewBox="0 0 1251 1269" enable-background="new 0 0 1251 1269" xml:space="preserve">
<rect fill="#231F20" stroke="#000000" stroke-miterlimit="10" width="1251" height="1269"/>
<g id="_x23_231f20ff">
</g>
<g id="_x23_c29721ff">
	<path fill="#C29721" d="M196.4,378.6c1.5-0.6,3.1-0.5,4.6-0.6c120.7,0,241.3,0,362,0c35.3,0.3,70.6,13.4,96.8,37.2
		c16.8,15.3,29.4,35.4,34.6,57.5c7.8,31.2,14.6,62.6,20.2,94.2c0,2.6,2.9,5,5.1,2.9c2-2.7,2.9-5.9,4.3-8.9
		c10.6-24,21.3-48,31.9-71.9c6.4-13.8,11.6-28.3,20.1-41c27.6-42.6,77.4-69.5,128.1-69.9c41.3,0,82.7,0,124,0
		c3.9-0.2,8,1.5,10.1,4.9c2.6,3.5,1.8,8.2,1.4,12.2c-1.3,10-2.7,19.9-4.4,29.9c-0.8,4.3-2.5,9.5-7.2,10.8c-4.3,0.8-8.6,0.3-12.9,0.4
		c-28.6,0-57.3,0-86,0c-10.1,0-20.2-0.3-30.1,1.3c-32.4,4.9-62.7,25.3-77.3,55c-19.3,39.3-37.8,79.1-56.3,118.8
		c-3.1,6.3-5.7,13.1-10.7,18.2c-2.5,2.6-6.2,2.9-9.5,2.9c-24.7,0-49.3,0-74,0c-3.4,0-7.1-0.4-9.6-2.9c-3.3-2.8-3.7-7.5-4.6-11.5
		c-7-35.4-14-70.9-21.8-106.1c-2-8.4-3.6-16.9-7.3-24.7c-6.7-14.4-18.1-26.2-31.3-34.8c-16.1-10.5-35.2-16.4-54.5-16.3
		c-44.6,0-89.3,0-133.9,0c-2.5,0-5.2,0.1-7.2,1.7c-2.3,1.6-3.1,4.5-3.5,7.1c-8.4,58-16.9,116.1-25.3,174.1c-0.6,3.8-1.4,8-4.5,10.7
		c-2.8,2.7-6.9,2.8-10.5,2.8c-14.6-0.1-29.3,0-44-0.1c-5.7,0.3-11.2-4.5-11.2-10.3c0.1-5.2,1.2-10.4,1.8-15.6
		c7.1-49.9,14.6-99.7,21.8-149.6c0.5-4.6,1.7-9.2,1.5-13.9c-0.5-4.3-4.8-7.1-8.9-6.8c-40.4,0-80.7,0-121.1,0
		c-3.5,0.1-7.1-1.1-9.3-3.8c-3-3.1-2.9-7.7-2.3-11.7c1.5-10.5,3.2-21,5.1-31.5C191.4,385.2,192.4,380.4,196.4,378.6z"/>
	<path fill="#C29721" d="M500.2,455.2c20-1.4,40.6,0.1,59.4,7.3c15.3,5.8,29,16.4,37.5,30.5c10.8,17.6,14.1,38.7,13.5,59.1
		c-0.2,5.9-5.8,10.6-11.7,10.1c-39.7,0-79.3,0-119,0c-4.1-0.3-8.2,2.5-8.8,6.7c-0.8,7.4,2.5,15,8.1,19.8c5.7,4.9,13.2,7.4,20.7,8.2
		c13.6,1.4,29-2.2,38-13c1.7-2.2,4.6-2,7.1-2c16.3,0.1,32.6,0,48.9,0c2.4,0,5.4,0.1,6.8,2.4c2.1,3.2,0.2,7.1-1.4,10.1
		c-5.3,9-13.7,16-22.4,21.6c-17.4,11-37.7,16.6-58.1,18.7c-17.3,1.7-35.2,1.6-52-3.4c-16.3-4.7-31.3-13.9-42.4-26.7
		c-11.6-13.5-19-30.8-19.7-48.6c-0.5-17.4,3.2-35.1,11.7-50.4c7.5-13.8,18.8-25.5,32.2-33.8C464.2,462.1,482.1,456.8,500.2,455.2
		 M507.2,492.2c-16.2,0.9-31.5,14-32.2,30.8c-0.9,3.7,2,7.7,6,7.3c17.7,0.1,35.4,0,53,0.1c2.6-0.1,5.6,0.1,7.8-1.6
		c2.6-2.1,3.3-5.7,3.3-8.9c0-6.5-3.3-12.7-7.8-17.3C529.5,494.9,518.1,491.1,507.2,492.2z"/>
	<path fill="#C29721" d="M903,458.2c17.3-4.3,35.4-4,53-2.6c15.9,1.5,32.1,4.3,46.3,12c9.6,5.2,17.9,13.8,20.5,24.6
		c2.1,7.4,0.9,15.2-0.4,22.7c-4.3,28-8.2,56.1-12.2,84.2c-0.8,6.3-2.1,12.5-1.7,18.9c0.2,3.3,1.3,6.6,1.2,10
		c-0.4,3.2-3.9,4.8-6.8,4.5c-15,0-30,0-45,0c-3.8,0.1-7.8-1-10.2-4.2c-3.6-4.5-2.1-10.6-2.3-15.9c-8.8,8.3-20.4,12.9-31.7,16.7
		c-16.3,5-33.5,7.3-50.5,6.5c-15.9-0.9-32-8.3-41.1-21.7c-9-12.8-10.3-30.3-3.9-44.5c6.1-13.7,18.9-23.7,33.1-27.7
		c30.1-8.5,61.2-12.7,91.4-20.9c4.1-1.2,8.6-2,11.9-5.1c4.6-4.1,5.5-11.9,1.5-16.7c-3.6-4.4-9.6-5.6-15-5.7
		c-8.6-0.2-18.1,1.2-24.5,7.4c-3.2,2.8-4.4,7-6.7,10.4c-2.7,3.1-7.2,3-10.9,3c-16.7-0.1-33.4,0.1-50.1-0.1c-3.2,0.3-6.3-2.6-5.9-5.9
		c0.4-7,4.3-13.2,8.4-18.6C864.2,473.3,883.2,463.1,903,458.2 M940.2,553.1c-15.6,3.8-30.8,9.2-46.1,13.9c-5.7,1.6-11.4,5.8-12.4,12
		c-1.7,8.4,5.1,16.8,13.4,18c8.3,1,16.7-1.5,24.3-4.6c11-4.8,21.4-11.9,27.8-22.2c2.4-4.4,4.7-9.6,3.3-14.7
		C948.7,551.5,943.7,552.2,940.2,553.1z"/>
	<path fill="#C29721" d="M941.5,731.4c2.9-6.1,13.2-8,16.3-1.1c5.6,12.3,10.9,24.8,16.3,37.2c2.8-0.9,5.8-2.8,8.8-1.7
		c3.9,1.1,6,5.9,4.3,9.5c-1.3,3-4.8,3.9-7.4,5.3c1.6,4.3,4.9,8.6,4.1,13.4c-1,5.9-9.1,8.5-13.4,4.5c-3-3.2-4-7.6-5.9-11.5
		c-9.5,4-18.9,8.2-28.3,12.2c-3.2,1.5-7.2,1.9-10-0.6c-3.6-3.1-3.6-8.5-2.3-12.7c3.4-11.2,7-22.3,10.4-33.5
		C936.9,745.5,938.4,738.1,941.5,731.4 M949.3,752c-3.1,10.1-6.2,20.2-9.3,30.3c6.3-2.7,12.6-5.4,18.9-8.2
		C955.8,766.8,952.6,759.4,949.3,752z"/>
	<path fill="#C29721" d="M306.8,743c-2.5-4.5,1.1-10.6,6.3-10.6c5.4,0.1,10.7,1,16,1.8c3.8,0.6,8.3,1.9,9.8,5.9
		c1.5,2.9,0.4,6.1-0.8,8.9c-7.9,18.1-15.7,36.2-23.5,54.4c-1,2.5-2.7,4.9-5.4,5.7c-4.3,1.7-9.6-0.8-11-5.2c-1.1-2.9,0.1-6,1.2-8.6
		c6.8-15.6,13.5-31.2,20.3-46.9C315.2,747.5,309,747.9,306.8,743z"/>
	<path fill="#C29721" d="M443.7,775.7c7.8-2,16.1-0.8,23.5,2.2c9.4,3.6,15.9,13.1,16.9,23c0.8,8.4-0.9,16.9-3.3,24.9
		c-3.1,9.6-8.5,19.1-17.3,24.5c-6.9,4.3-15.6,5.2-23.4,3.4c-7.7-1.6-15.3-5.2-20.5-11.4c-3.6-4.5-0.4-12,5.4-12.4
		c4.4-0.8,7.4,3.1,10.7,5.2c5.2,3.5,12.6,5.2,18.3,1.8c4.5-2.6,6.8-7.4,9-11.9c-5.5,1.9-11.4,2.8-17.1,1.3
		c-7.7-1.8-15.5-5.9-19.4-13c-3.9-7.1-3.3-15.9-0.1-23.1C429.5,783.1,436.1,777.6,443.7,775.7 M448.4,790.4
		c-7.2,2.6-9.7,13.1-4.3,18.5c4.3,4.2,11.1,5.8,16.9,3.9c6.9-2.4,9.4-12.1,4.9-17.7C461.7,790.3,454.4,788.5,448.4,790.4z"/>
	<path fill="#C29721" d="M776.1,789c4.8-7.3,13.4-11.2,21.8-12.5c7.8-1.2,16.4-0.2,22.7,4.9c5.7,4.6,8.1,12.7,6.5,19.8
		c-0.8,3.8-3.4,6.8-5.8,9.7c5,1.6,10.4,3.8,13.3,8.5c4.3,6.9,4.5,16.3-0.3,23c-5.1,7.2-13.7,11.1-22.1,12.9
		c-8.6,1.8-18.4,1.4-25.9-3.8c-7-4.7-9.9-14.1-8-22.2c1.1-4.5,4.6-7.9,8-10.9c-4.6-2-9.2-4.8-11.3-9.5
		C771.9,802.7,772.1,794.8,776.1,789 M796.3,791.5c-5.3,1.6-8.8,8-5.8,13c3.5,6.6,13.4,6.1,18.4,1.4c3.7-3.3,3.7-9.6,0-12.9
		C805.6,789.9,800.4,789.9,796.3,791.5 M805.3,822.5c-4.4,1-9.2,3.4-10.7,7.9c-1.5,4.5,1.5,9.6,6.1,10.8c5.9,1.6,12.8,0.2,17.5-3.9
		c3.5-3,3.9-8.7,0.8-12.1C815.5,821.4,809.9,821.5,805.3,822.5z"/>
	<path fill="#C29721" d="M627.4,800.6c5.3-1.8,11.8,0.2,14.8,5.2c14.2,22.5,28.3,45.1,42.4,67.6c2.1,3.2,3.2,7.3,1.6,10.9
		c-1.9,4.7-7.3,6.9-12.1,6.7c-28.4,0-56.7,0-85.1,0c-4.6,0.2-9.7-1.9-11.8-6.2c-1.9-3.7-0.9-8.1,1.3-11.4
		c13.9-22.1,27.8-44.2,41.6-66.4C621.7,804.2,624.1,801.6,627.4,800.6 M597.8,874.9c22.5,0,45,0,67.5,0
		c-11.2-18-22.5-35.9-33.8-53.8C620.2,839,609,857,597.8,874.9z"/>
</g>
</svg>
