<?xml version="1.0" encoding="utf-8"?>
<!-- Generator: Adobe Illustrator 18.0.0, SVG Export Plug-In . SVG Version: 6.00 Build 0)  -->
<!DOCTYPE svg PUBLIC "-//W3C//DTD SVG 1.1//EN" "http://www.w3.org/Graphics/SVG/1.1/DTD/svg11.dtd">
<svg version="1.1" id="Layer_1" xmlns="http://www.w3.org/2000/svg" xmlns:xlink="http://www.w3.org/1999/xlink" x="0px" y="0px"
	 viewBox="0 163.2 612 465.6" enable-background="new 0 163.2 612 465.6" xml:space="preserve">
<rect y="163.2" fill="#231F20" width="612" height="465.6"/>
<g id="_x23_231f20ff">
</g>
<g id="_x23_c29721ff">
	<path fill="#C29721" d="M96.1,270.8c0.7-0.3,1.5-0.2,2.3-0.3c59,0,118,0,177.1,0c17.3,0.1,34.5,6.6,47.4,18.2
		c8.2,7.5,14.4,17.3,16.9,28.1c3.8,15.3,7.1,30.6,9.9,46.1c0,1.3,1.4,2.4,2.5,1.4c1-1.3,1.4-2.9,2.1-4.4
		c5.2-11.7,10.4-23.5,15.6-35.2c3.1-6.8,5.7-13.8,9.8-20.1c13.5-20.8,37.9-34,62.7-34.2c20.2,0,40.5,0,60.7,0
		c1.9-0.1,3.9,0.7,4.9,2.4c1.3,1.7,0.9,4,0.7,6c-0.6,4.9-1.3,9.7-2.2,14.6c-0.4,2.1-1.2,4.6-3.5,5.3c-2.1,0.4-4.2,0.1-6.3,0.2
		c-14,0-28,0-42.1,0c-4.9,0-9.9-0.1-14.7,0.6c-15.9,2.4-30.7,12.4-37.8,26.9c-9.4,19.2-18.5,38.7-27.5,58.1
		c-1.5,3.1-2.8,6.4-5.2,8.9c-1.2,1.3-3,1.4-4.6,1.4c-12.1,0-24.1,0-36.2,0c-1.7,0-3.5-0.2-4.7-1.4c-1.6-1.4-1.8-3.7-2.3-5.6
		c-3.4-17.3-6.8-34.7-10.7-51.9c-1-4.1-1.8-8.3-3.6-12.1c-3.3-7-8.9-12.8-15.3-17c-7.9-5.1-17.2-8-26.7-8c-21.8,0-43.7,0-65.5,0
		c-1.2,0-2.5,0-3.5,0.8c-1.1,0.8-1.5,2.2-1.7,3.5c-4.1,28.4-8.3,56.8-12.4,85.2c-0.3,1.9-0.7,3.9-2.2,5.2c-1.4,1.3-3.4,1.4-5.1,1.4
		c-7.1,0-14.3,0-21.5,0c-2.8,0.1-5.5-2.2-5.5-5c0-2.5,0.6-5.1,0.9-7.6c3.5-24.4,7.1-48.8,10.7-73.2c0.2-2.3,0.8-4.5,0.7-6.8
		c-0.2-2.1-2.3-3.5-4.4-3.3c-19.8,0-39.5,0-59.2,0c-1.7,0-3.5-0.5-4.5-1.9c-1.5-1.5-1.4-3.8-1.1-5.7c0.7-5.1,1.6-10.3,2.5-15.4
		C93.6,274,94.1,271.7,96.1,270.8z"/>
	<path fill="#C29721" d="M244.7,308.3c9.8-0.7,19.9,0,29.1,3.6c7.5,2.8,14.2,8,18.3,14.9c5.3,8.6,6.9,18.9,6.6,28.9
		c-0.1,2.9-2.8,5.2-5.7,4.9c-19.4,0-38.8,0-58.2,0c-2-0.1-4,1.2-4.3,3.3c-0.4,3.6,1.2,7.3,4,9.7c2.8,2.4,6.5,3.6,10.1,4
		c6.7,0.7,14.2-1.1,18.6-6.4c0.8-1.1,2.3-1,3.5-1c8,0,15.9,0,23.9,0c1.2,0,2.6,0,3.3,1.2c1,1.6,0.1,3.5-0.7,4.9
		c-2.6,4.4-6.7,7.8-11,10.6c-8.5,5.4-18.4,8.1-28.4,9.1c-8.5,0.8-17.2,0.8-25.4-1.7c-8-2.3-15.3-6.8-20.7-13.1
		c-5.7-6.6-9.3-15.1-9.6-23.8c-0.2-8.5,1.6-17.2,5.7-24.7c3.7-6.8,9.2-12.5,15.8-16.5C227.1,311.7,235.8,309.1,244.7,308.3
		 M248.1,326.4c-7.9,0.4-15.4,6.8-15.8,15.1c-0.4,1.8,1,3.8,2.9,3.6c8.7,0,17.3,0,25.9,0c1.3,0,2.7,0,3.8-0.8c1.3-1,1.6-2.8,1.6-4.4
		c0-3.2-1.6-6.2-3.8-8.5C259,327.7,253.5,325.8,248.1,326.4z"/>
	<path fill="#C29721" d="M441.8,309.8c8.5-2.1,17.3-2,25.9-1.3c7.8,0.7,15.7,2.1,22.7,5.9c4.7,2.5,8.8,6.8,10,12
		c1,3.6,0.4,7.4-0.2,11.1c-2.1,13.7-4,27.4-6,41.2c-0.4,3.1-1,6.1-0.8,9.2c0.1,1.6,0.6,3.2,0.6,4.9c-0.2,1.6-1.9,2.3-3.3,2.2
		c-7.3,0-14.7,0-22,0c-1.9,0-3.8-0.5-5-2.1c-1.8-2.2-1-5.2-1.1-7.8c-4.3,4.1-10,6.3-15.5,8.2c-8,2.4-16.4,3.6-24.7,3.2
		c-7.8-0.4-15.7-4.1-20.1-10.6c-4.4-6.3-5-14.8-1.9-21.8c3-6.7,9.2-11.6,16.2-13.6c14.7-4.2,29.9-6.2,44.7-10.2c2-0.6,4.2-1,5.8-2.5
		c2.3-2,2.7-5.8,0.7-8.2c-1.8-2.2-4.7-2.7-7.3-2.8c-4.2-0.1-8.9,0.6-12,3.6c-1.6,1.4-2.2,3.4-3.3,5.1c-1.3,1.5-3.5,1.5-5.3,1.5
		c-8.2,0-16.3,0-24.5,0c-1.6,0.1-3.1-1.3-2.9-2.9c0.2-3.4,2.1-6.5,4.1-9.1C422.8,317.1,432.1,312.1,441.8,309.8 M460,356.2
		c-7.6,1.9-15.1,4.5-22.6,6.8c-2.8,0.8-5.6,2.8-6.1,5.9c-0.8,4.1,2.5,8.2,6.6,8.8c4.1,0.5,8.2-0.7,11.9-2.3
		c5.4-2.3,10.5-5.8,13.6-10.9c1.2-2.2,2.3-4.7,1.6-7.2C464.1,355.4,461.7,355.7,460,356.2z"/>
	<path fill="#C29721" d="M460.6,443.4c1.4-3,6.5-3.9,8-0.5c2.7,6,5.3,12.1,8,18.2c1.4-0.4,2.8-1.4,4.3-0.8c1.9,0.5,2.9,2.9,2.1,4.6
		c-0.6,1.5-2.3,1.9-3.6,2.6c0.8,2.1,2.4,4.2,2,6.6c-0.5,2.9-4.5,4.2-6.6,2.2c-1.5-1.6-2-3.7-2.9-5.6c-4.6,2-9.2,4-13.8,6
		c-1.6,0.7-3.5,0.9-4.9-0.3c-1.8-1.5-1.8-4.2-1.1-6.2c1.7-5.5,3.4-10.9,5.1-16.4C458.3,450.3,459.1,446.7,460.6,443.4 M464.4,453.5
		c-1.5,4.9-3,9.9-4.5,14.8c3.1-1.3,6.2-2.6,9.2-4C467.6,460.7,466,457.1,464.4,453.5z"/>
	<path fill="#C29721" d="M150.1,449.1c-1.2-2.2,0.5-5.2,3.1-5.2c2.6,0,5.2,0.5,7.8,0.9c1.9,0.3,4.1,0.9,4.8,2.9
		c0.7,1.4,0.2,3-0.4,4.4c-3.9,8.9-7.7,17.7-11.5,26.6c-0.5,1.2-1.3,2.4-2.6,2.8c-2.1,0.8-4.7-0.4-5.4-2.5c-0.5-1.4,0-2.9,0.6-4.2
		c3.3-7.6,6.6-15.3,9.9-22.9C154.2,451.3,151.2,451.5,150.1,449.1z"/>
	<path fill="#C29721" d="M217.1,465.1c3.8-1,7.9-0.4,11.5,1.1c4.6,1.8,7.8,6.4,8.3,11.3c0.4,4.1-0.4,8.3-1.6,12.2
		c-1.5,4.7-4.2,9.3-8.5,12c-3.4,2.1-7.6,2.5-11.4,1.7c-3.8-0.8-7.5-2.5-10-5.6c-1.8-2.2-0.2-5.9,2.6-6.1c2.2-0.4,3.6,1.5,5.2,2.5
		c2.5,1.7,6.2,2.5,9,0.9c2.2-1.3,3.3-3.6,4.4-5.8c-2.7,0.9-5.6,1.4-8.4,0.6c-3.8-0.9-7.6-2.9-9.5-6.4c-1.9-3.5-1.6-7.8,0-11.3
		C210.1,468.7,213.3,466,217.1,465.1 M219.4,472.3c-3.5,1.3-4.7,6.4-2.1,9.1c2.1,2.1,5.4,2.8,8.3,1.9c3.4-1.2,4.6-5.9,2.4-8.7
		C225.9,472.2,222.3,471.3,219.4,472.3z"/>
	<path fill="#C29721" d="M379.7,471.6c2.3-3.6,6.6-5.5,10.7-6.1c3.8-0.6,8-0.1,11.1,2.4c2.8,2.3,4,6.2,3.2,9.7
		c-0.4,1.9-1.7,3.3-2.8,4.7c2.4,0.8,5.1,1.9,6.5,4.2c2.1,3.4,2.2,8-0.1,11.3c-2.5,3.5-6.7,5.4-10.8,6.3c-4.2,0.9-9,0.7-12.7-1.9
		c-3.4-2.3-4.8-6.9-3.9-10.9c0.5-2.2,2.3-3.9,3.9-5.3c-2.3-1-4.5-2.3-5.5-4.6C377.6,478.3,377.7,474.4,379.7,471.6 M389.6,472.8
		c-2.6,0.8-4.3,3.9-2.8,6.4c1.7,3.2,6.6,3,9,0.7c1.8-1.6,1.8-4.7,0-6.3C394.1,472,391.6,472,389.6,472.8 M394,488
		c-2.2,0.5-4.5,1.7-5.2,3.9c-0.7,2.2,0.7,4.7,3,5.3c2.9,0.8,6.3,0.1,8.6-1.9c1.7-1.5,1.9-4.3,0.4-5.9
		C398.9,487.4,396.2,487.5,394,488z"/>
	<path fill="#C29721" d="M306.9,477.3c2.6-0.9,5.8,0.1,7.2,2.5c6.9,11,13.8,22.1,20.7,33.1c1,1.6,1.6,3.6,0.8,5.3
		c-0.9,2.3-3.6,3.4-5.9,3.3c-13.9,0-27.7,0-41.6,0c-2.3,0.1-4.7-0.9-5.8-3c-0.9-1.8-0.4-4,0.6-5.6c6.8-10.8,13.6-21.6,20.4-32.5
		C304.1,479,305.3,477.7,306.9,477.3 M292.4,513.6c11,0,22,0,33,0c-5.5-8.8-11-17.6-16.5-26.3C303.4,496,297.9,504.8,292.4,513.6z"
		/>
</g>
</svg>
